<?xml version="1.0" encoding="UTF-8" standalone="no"?>
<!-- Created with Inkscape (http://www.inkscape.org/) -->

<svg
   width="8.1922741mm"
   height="8.3356895mm"
   viewBox="0 0 8.1922741 8.3356895"
   version="1.1"
   id="svg1"
   inkscape:version="1.3 (0e150ed6c4, 2023-07-21)"
   sodipodi:docname="funny_at.svg"
   inkscape:export-filename="funny_at.png"
   inkscape:export-xdpi="310.04822"
   inkscape:export-ydpi="310.04822"
   xmlns:inkscape="http://www.inkscape.org/namespaces/inkscape"
   xmlns:sodipodi="http://sodipodi.sourceforge.net/DTD/sodipodi-0.dtd"
   xmlns="http://www.w3.org/2000/svg"
   xmlns:svg="http://www.w3.org/2000/svg">
  <sodipodi:namedview
     id="namedview1"
     pagecolor="#ffffff"
     bordercolor="#000000"
     borderopacity="0.25"
     inkscape:showpageshadow="2"
     inkscape:pageopacity="0.0"
     inkscape:pagecheckerboard="0"
     inkscape:deskcolor="#d1d1d1"
     inkscape:document-units="mm"
     inkscape:zoom="1.5964085"
     inkscape:cx="45.727644"
     inkscape:cy="113.6927"
     inkscape:window-width="1920"
     inkscape:window-height="1001"
     inkscape:window-x="-9"
     inkscape:window-y="-9"
     inkscape:window-maximized="1"
     inkscape:current-layer="layer1" />
  <defs
     id="defs1" />
  <g
     inkscape:label="Layer 1"
     inkscape:groupmode="layer"
     id="layer1"
     transform="translate(-92.868674,-118.26853)">
    <path
       id="path160"
       style="fill:#000000;fill-opacity:1;fill-rule:nonzero;stroke:none;stroke-width:0.0352777"
       d="m 97.272294,122.72034 c 0,0.31366 -0.112148,0.60579 -0.307411,0.8012 -0.146367,0.14637 -0.330482,0.22684 -0.518724,0.22684 -0.391336,0 -0.625052,-0.2424 -0.625052,-0.6488 0,-0.30261 0.106363,-0.57531 0.29972,-0.76867 0.153635,-0.15377 0.338455,-0.23495 0.534812,-0.23495 0.374685,0 0.616655,0.24515 0.616655,0.62438 z m 3.772536,2.34033 c -0.0243,-0.0491 -0.0718,-0.0803 -0.12665,-0.0844 l -1.331452,-0.10583 c -0.05567,-0.006 -0.114512,0.0177 -0.154764,0.0671 -0.05069,0.0663 -0.04149,0.15625 0.03295,0.22116 l 0.323708,0.2099 c -1.773555,0.92463 -4.657936,0.88509 -6.282231,-0.65941 -0.261126,-2.74285 1.029406,-4.90566 3.458069,-5.79642 1.322776,0.55217 2.74133,1.96356 2.758264,3.78146 -0.0015,0.91475 -0.350979,1.50566 -0.890623,1.50566 -0.280988,0 -0.455719,-0.14362 -0.455719,-0.37497 0,-0.0558 0.0076,-0.15353 0.02205,-0.22698 l 0.402273,-2.30103 -1.209781,-0.19487 -0.05997,0.29009 c -0.273262,-0.26392 -0.614186,-0.39261 -1.036532,-0.39261 -1.050749,0 -1.93862,0.98736 -1.93862,2.1565 0,0.99409 0.661317,1.68836 1.608032,1.68836 0.432823,0 0.830933,-0.14567 1.184134,-0.43353 0.221438,0.21015 0.60646,0.43353 1.242448,0.43353 1.018363,0 1.698974,-0.80575 1.733544,-2.04679 l 0.004,-0.0529 -0.001,-0.0303 -0.0881,0.004 0.0883,-0.0317 -0.003,-0.0815 c -0.0622,-2.11568 -1.72116,-3.70843 -3.244172,-4.29616 l -0.103752,-0.0405 -0.104457,0.0369 c -2.818765,0.97798 -4.297151,3.43641 -3.954286,6.57614 l 0.01171,0.10403 0.0744,0.0755 c 0.990565,0.99494 2.436671,1.54312 4.072114,1.54312 1.05985,0 2.103155,-0.2413 2.958113,-0.6827 l -0.0273,0.3525 c 0.005,0.081 0.0719,0.14249 0.15766,0.14249 0.057,-8e-4 0.11176,-0.0307 0.14344,-0.0791 l 0.72789,-1.12419 c 0.0303,-0.047 0.0338,-0.10404 0.009,-0.15283" />
  </g>
</svg>
